<svg width="1023" height="1295" viewBox="0 0 1023 1295" fill="none" xmlns="http://www.w3.org/2000/svg">
<g clip-path="url(#clip0_86_12)">
<mask id="mask0_86_12" style="mask-type:luminance" maskUnits="userSpaceOnUse" x="0" y="0" width="1023" height="1296">
<path d="M1023 0H0V1295.2H1023V0Z" fill="white"/>
</mask>
<g mask="url(#mask0_86_12)">
<path opacity="0.979" fill-rule="evenodd" clip-rule="evenodd" d="M272.3 -1.09998C524.7 -0.299976 777.4 -0.299976 1030.4 -1.09998C1030.8 429.2 1030.4 859.5 1029.3 1289.9C689.5 1292.1 349.6 1292.9 9.5 1292.1C9.5 861.8 9.5 431.5 9.5 1.10002C97.5 1.90002 185.1 1.20002 272.3 -1.09998ZM31.1 23.6C67.7 23.2 104.3 23.6 140.9 24.7C115.6 63 90.4 101.5 65.6 140.1C53.4 129.2 42.2 117.3 32.2 104.2C31.1 77.4 30.7 50.5 31.1 23.6ZM287.4 23.6C299.4 26.1 311.3 29.1 322.9 32.6C336.9 105.7 350.2 178.9 362.7 252.2C293.8 255.8 228.5 241.9 166.7 210.7C207.3 148.4 247.5 86 287.4 23.6ZM444.6 23.6C471.2 23.2 497.7 23.6 524.3 24.7C566.3 52.9 607.9 81.7 649.2 111C603.7 163.1 549.1 202 485.5 227.5C481.7 210.5 485.5 227.2 481.7 210.5C470.1 148.6 455.3 85.7 444.6 23.6ZM892.6 23.6C933.5 23.6 974.4 23.6 1015.4 23.6C1015.5 184 1015.5 344.7 1015.4 505.5C978.2 498.9 941.2 491.4 904.5 483.1C896.6 437.2 889 391.2 881.9 345.3C857.7 343.5 833.6 343.8 809.8 346.4C802.7 392.5 795.2 438.5 787.2 484.2C754.6 489.2 722.3 496 690.3 504.4C682.9 506.9 676.8 505 672 498.8C651.3 463 630.9 427.2 610.6 391.2C605.7 388.6 600.7 388.3 595.5 390.1C578.3 398.3 561 406.5 543.8 414.8C541.5 416.5 540.1 418.7 539.5 421.5C552 465.4 561.7 509.9 568.6 554.9C535.5 573.2 504.6 594.9 476 619.9C443.9 593.3 411.3 567.5 378 542.6C372.3 538.1 366.5 538.1 360.8 542.6C346.7 556.5 333.5 571.1 321 586.3C319.6 590.8 319.6 595.3 321 599.7C345.9 633.8 370 668.6 393.1 703.9C372 734.7 352.3 766.4 333.9 799.2C326.5 801.3 318.9 800.9 311.3 798.1C278.9 790.2 246.6 782 214.4 773.4C208.8 771.7 203.4 772.1 198.2 774.5C191.5 794.4 183.6 813.9 174.5 832.8C173.1 835.8 173.1 838.8 174.5 841.8C211.9 867.7 249.6 893.1 287.6 918C276.9 953.9 269.4 990.5 265 1027.8C221.1 1037.1 177 1045.3 132.5 1052.5C131.8 1079.2 132.5 1105.7 134.7 1132.1C178.5 1139.2 222.3 1146.3 266.1 1153.4C270 1192.1 276.4 1230.2 285.5 1267.7C200.5 1267.4 115.8 1266.7 31.4 1265.5C30.3 976.2 31.4 687.1 34.6 398.1C46.1 384.7 57.6 371.2 69.1 357.8C100.8 376.3 134.2 390.9 169.2 401.5C170.3 402.6 171.4 403.7 172.4 404.9C171.9 440.4 170.9 475.9 169.2 511.4C167.8 540.5 167.6 531.9 168.3 542.8C173.6 545.9 167.2 543.9 201.3 554.4C218.3 557.4 208.7 555.5 233.9 559.6C236.6 559.4 239.2 558.7 241.4 557.4C255.7 512.5 271.8 468.4 289.9 425.2C307 427.5 324.2 429 341.6 429.7C361.4 429.1 381.2 428.4 400.8 427.5C414.9 471.2 429.6 514.5 445 557.5C447.5 558.2 450 559 452.5 559.7C473 555.8 493.4 551.7 513.9 547.4C515.1 499.8 515.1 451.6 513.9 402.8C549.4 391.2 583.8 377 617.3 360.2C645.5 393.7 674.2 426.9 703.4 459.9C707.9 461.7 712.2 461.3 716.3 458.8C733.4 447.1 750.2 435.2 766.9 422.9C768.3 419.9 768.3 416.9 766.9 413.9C748.9 373.4 731.3 332.7 714.1 291.8C742.5 266 768.7 238 792.7 207.8C832.6 228.6 872.8 248.7 913.3 268.3C928.4 249.5 942.1 229.3 954.2 207.8C955.6 205.6 955.6 203.3 954.2 201.1C922.5 169.6 890.9 138.2 859.4 107C870.5 79.3 881.6 51.6 892.6 23.6ZM903.3 664.6C940.8 669.4 977.4 679.8 1013.1 696C1016 739.3 1016 782.7 1013.1 826C989 849.9 965.3 874.6 942 900C940.6 900.7 939.1 901.5 937.7 902.2C927.1 897.8 916.3 894 905.4 891C905.4 814.3 904.7 738.8 903.3 664.6ZM772 664.6C782.6 662.5 772 664.6 782.6 662.5C782.6 681.6 782.1 872.2 780.6 891C769.8 895.4 760.3 898.6 748.3 901.1C698.7 848 648.5 795.7 597.5 744.2C650.1 704.4 708.3 677.9 772 664.6ZM511.4 834.9C562.4 886.8 605.9 932 656.1 984.7C659.1 987.9 656.1 984.7 665.7 994.3C661.4 1004 654.3 1019.8 649.2 1028.8C578.1 1029.9 507.1 1030.3 436 1029.9C443.7 971 462 917.2 490.9 868.5C497.8 857.2 504.6 846 511.4 834.9ZM436 1155.4C508.5 1157.4 581 1158.1 653.5 1157.6C656.2 1168.3 659.8 1178.8 664.3 1189C642.5 1215 619.5 1240.1 595.4 1264.1C573.3 1266.7 551.1 1267.8 528.6 1267.5C507.3 1267.5 486.1 1266.7 465.1 1265.3C450.3 1230.1 440.6 1193.4 436 1155.4ZM936.2 1092.1C936.2 1142.9 895 1184 844.3 1184C793.5 1184 752.4 1142.8 752.4 1092.1C752.4 1041.4 793.6 1000.2 844.3 1000.2C895.1 1000.2 936.2 1041.3 936.2 1092.1Z" fill="#39A6FF"/>
</g>
<path d="M1004.5 18.5H18.5V1276.7H1004.5V18.5Z" stroke="#39A6FF" stroke-width="37"/>
</g>
<defs>
<clipPath id="clip0_86_12">
<rect width="1023" height="1295" fill="white"/>
</clipPath>
</defs>
</svg>
