<svg width="1023" height="1580" viewBox="0 0 1023 1580" fill="none" xmlns="http://www.w3.org/2000/svg">
<mask id="mask0_84_2" style="mask-type:luminance" maskUnits="userSpaceOnUse" x="0" y="0" width="1023" height="1296">
<path d="M1023 0H0V1295.2H1023V0Z" fill="white"/>
</mask>
<g mask="url(#mask0_84_2)">
<path opacity="0.979" fill-rule="evenodd" clip-rule="evenodd" d="M272.3 -1.09998C524.7 -0.299976 777.4 -0.299976 1030.4 -1.09998C1030.8 429.2 1030.4 859.5 1029.3 1289.9C689.5 1292.1 349.6 1292.9 9.5 1292.1C9.5 861.8 9.5 431.5 9.5 1.10002C97.5 1.90002 185.1 1.20002 272.3 -1.09998ZM31.1 23.6C67.7 23.2 104.3 23.6 140.9 24.7C115.6 63 90.4 101.5 65.6 140.1C53.4 129.2 42.2 117.3 32.2 104.2C31.1 77.4 30.7 50.5 31.1 23.6ZM287.4 23.6C299.4 26.1 311.3 29.1 322.9 32.6C336.9 105.7 350.2 178.9 362.7 252.2C293.8 255.8 228.5 241.9 166.7 210.7C207.3 148.4 247.5 86 287.4 23.6ZM444.6 23.6C471.2 23.2 497.7 23.6 524.3 24.7C566.3 52.9 607.9 81.7 649.2 111C603.7 163.1 549.1 202 485.5 227.5C481.7 210.5 485.5 227.2 481.7 210.5C470.1 148.6 455.3 85.7 444.6 23.6ZM892.6 23.6C933.5 23.6 974.4 23.6 1015.4 23.6C1015.5 184 1015.5 344.7 1015.4 505.5C978.2 498.9 941.2 491.4 904.5 483.1C896.6 437.2 889 391.2 881.9 345.3C857.7 343.5 833.6 343.8 809.8 346.4C802.7 392.5 795.2 438.5 787.2 484.2C754.6 489.2 722.3 496 690.3 504.4C682.9 506.9 676.8 505 672 498.8C651.3 463 630.9 427.2 610.6 391.2C605.7 388.6 600.7 388.3 595.5 390.1C578.3 398.3 561 406.5 543.8 414.8C541.5 416.5 540.1 418.7 539.5 421.5C552 465.4 561.7 509.9 568.6 554.9C535.5 573.2 504.6 594.9 476 619.9C443.9 593.3 411.3 567.5 378 542.6C372.3 538.1 366.5 538.1 360.8 542.6C346.7 556.5 333.5 571.1 321 586.3C319.6 590.8 319.6 595.3 321 599.7C345.9 633.8 370 668.6 393.1 703.9C372 734.7 352.3 766.4 333.9 799.2C326.5 801.3 318.9 800.9 311.3 798.1C278.9 790.2 246.6 782 214.4 773.4C208.8 771.7 203.4 772.1 198.2 774.5C191.5 794.4 183.6 813.9 174.5 832.8C173.1 835.8 173.1 838.8 174.5 841.8C211.9 867.7 249.6 893.1 287.6 918C276.9 953.9 269.4 990.5 265 1027.8C221.1 1037.1 177 1045.3 132.5 1052.5C131.8 1079.2 132.5 1105.7 134.7 1132.1C178.5 1139.2 222.3 1146.3 266.1 1153.4C270 1192.1 276.4 1230.2 285.5 1267.7C200.5 1267.4 115.8 1266.7 31.4 1265.5C30.3 976.2 31.4 687.1 34.6 398.1C46.1 384.7 57.6 371.2 69.1 357.8C100.8 376.3 134.2 390.9 169.2 401.5C170.3 402.6 171.4 403.7 172.4 404.9C171.9 440.4 170.9 475.9 169.2 511.4C167.8 540.5 167.6 531.9 168.3 542.8C173.6 545.9 167.2 543.9 201.3 554.4C218.3 557.4 208.7 555.5 233.9 559.6C236.6 559.4 239.2 558.7 241.4 557.4C255.7 512.5 271.8 468.4 289.9 425.2C307 427.5 324.2 429 341.6 429.7C361.4 429.1 381.2 428.4 400.8 427.5C414.9 471.2 429.6 514.5 445 557.5C447.5 558.2 450 559 452.5 559.7C473 555.8 493.4 551.7 513.9 547.4C515.1 499.8 515.1 451.6 513.9 402.8C549.4 391.2 583.8 377 617.3 360.2C645.5 393.7 674.2 426.9 703.4 459.9C707.9 461.7 712.2 461.3 716.3 458.8C733.4 447.1 750.2 435.2 766.9 422.9C768.3 419.9 768.3 416.9 766.9 413.9C748.9 373.4 731.3 332.7 714.1 291.8C742.5 266 768.7 238 792.7 207.8C832.6 228.6 872.8 248.7 913.3 268.3C928.4 249.5 942.1 229.3 954.2 207.8C955.6 205.6 955.6 203.3 954.2 201.1C922.5 169.6 890.9 138.2 859.4 107C870.5 79.3 881.6 51.6 892.6 23.6ZM903.3 664.6C940.8 669.4 977.4 679.8 1013.1 696C1016 739.3 1016 782.7 1013.1 826C989 849.9 965.3 874.6 942 900C940.6 900.7 939.1 901.5 937.7 902.2C927.1 897.8 916.3 894 905.4 891C905.4 814.3 904.7 738.8 903.3 664.6ZM772 664.6C782.6 662.5 772 664.6 782.6 662.5C782.6 681.6 782.1 872.2 780.6 891C769.8 895.4 760.3 898.6 748.3 901.1C698.7 848 648.5 795.7 597.5 744.2C650.1 704.4 708.3 677.9 772 664.6ZM511.4 834.9C562.4 886.8 605.9 932 656.1 984.7C659.1 987.9 656.1 984.7 665.7 994.3C661.4 1004 654.3 1019.8 649.2 1028.8C578.1 1029.9 507.1 1030.3 436 1029.9C443.7 971 462 917.2 490.9 868.5C497.8 857.2 504.6 846 511.4 834.9ZM436 1155.4C508.5 1157.4 581 1158.1 653.5 1157.6C656.2 1168.3 659.8 1178.8 664.3 1189C642.5 1215 619.5 1240.1 595.4 1264.1C573.3 1266.7 551.1 1267.8 528.6 1267.5C507.3 1267.5 486.1 1266.7 465.1 1265.3C450.3 1230.1 440.6 1193.4 436 1155.4ZM936.2 1092.1C936.2 1142.9 895 1184 844.3 1184C793.5 1184 752.4 1142.8 752.4 1092.1C752.4 1041.4 793.6 1000.2 844.3 1000.2C895.1 1000.2 936.2 1041.3 936.2 1092.1Z" fill="#39A6FF"/>
</g>
<path d="M1004.5 18.5H18.5V1276.7H1004.5V18.5Z" stroke="#39A6FF" stroke-width="37"/>
<path d="M141.8 1356.2H157.4V1402.9H158L190.1 1356.2H203.8V1430.4H188.1V1383.7H187.6L155.4 1430.4H141.8V1356.2ZM216.8 1430.3V1356.1H232.5V1386.7H264.3V1356.1H280V1430.3H264.4V1399.7H232.6V1430.3H216.8ZM349.4 1356.2V1430.4H334.2V1356.2H349.4ZM289.4 1430.3L312.7 1391.2L290.4 1356.1H309.7L326.4 1386.6H357.7L373.9 1356.1H393.1L371.4 1391.1L394.2 1430.3H375.5L359.8 1401.1H324L307.9 1430.3H289.4ZM403.6 1430.3V1356.1H453.6V1369H419.3V1386.7H451V1399.6H419.3V1417.3H453.7V1430.2H403.6V1430.3ZM466 1430.3V1356.1H481.7V1386.7H513.5V1356.1H529.1V1430.3H513.5V1399.7H481.7V1430.3H466ZM542.1 1430.3V1356.1H592.1V1369H557.8V1386.7H589.5V1399.6H557.8V1417.3H592.2V1430.2H542.1V1430.3ZM604.6 1430.3V1356.1H633.9C639.5 1356.1 644.3 1357.2 648.3 1359.3C652.3 1361.4 655.3 1364.4 657.4 1368.2C659.5 1372 660.6 1376.3 660.6 1381.2C660.6 1386.1 659.5 1390.5 657.4 1394.2C655.3 1397.9 652.2 1400.9 648.2 1403C644.2 1405.1 639.3 1406.2 633.6 1406.2H614.9V1393.6H631C634 1393.6 636.5 1393.1 638.5 1392.1C640.5 1391 642 1389.6 642.9 1387.7C643.9 1385.8 644.4 1383.7 644.4 1381.2C644.4 1378.7 643.9 1376.6 642.9 1374.7C641.9 1372.8 640.5 1371.4 638.5 1370.4C636.5 1369.4 634 1368.8 631 1368.8H620.4V1430.1H604.6V1430.3ZM670.6 1430.3V1356.1H686.3V1386.7H718.1V1356.1H733.7V1430.3H718.1V1399.7H686.3V1430.3H670.6ZM759.5 1430.3H742.7L768.3 1356.1H788.5L814.1 1430.3H797.3L778.7 1373.1H778.1L759.5 1430.3ZM758.5 1401.2H798.2V1413.4H758.5V1401.2ZM880 1430.3H864.4V1369H853.8C850.8 1369 848.3 1369.4 846.3 1370.3C844.3 1371.2 842.8 1372.4 841.8 1374.1C840.8 1375.8 840.3 1377.9 840.3 1380.3C840.3 1382.7 840.8 1384.8 841.8 1386.4C842.8 1388 844.3 1389.3 846.3 1390.1C848.3 1390.9 850.8 1391.3 853.8 1391.3H870.8V1403.9H851.2C845.5 1403.9 840.7 1403 836.6 1401.1C832.6 1399.2 829.5 1396.5 827.4 1393C825.3 1389.4 824.2 1385.2 824.2 1380.3C824.2 1375.4 825.2 1371.1 827.3 1367.5C829.4 1363.8 832.4 1361 836.4 1359.1C840.4 1357.1 845.2 1356.1 850.8 1356.1H880V1430.3ZM839.9 1396.6H856.8L838.8 1430.4H821.5L839.9 1396.6ZM254 1553.3L230.2 1521.7H224.8V1553.3H209.1V1479.1H224.8V1508.7H228L252.6 1479.1H272.1L243.2 1513.5L273.5 1553.3H254ZM345.3 1516.3C345.3 1524.4 343.8 1531.3 340.7 1537C337.7 1542.7 333.5 1547 328.2 1550C323 1553 317.1 1554.5 310.5 1554.5C303.9 1554.5 298 1553 292.8 1550C287.6 1547 283.4 1542.7 280.4 1537C277.4 1531.3 275.8 1524.5 275.8 1516.4C275.8 1508.3 277.3 1501.4 280.4 1495.8C283.4 1490.1 287.6 1485.8 292.8 1482.8C298 1479.8 304 1478.3 310.5 1478.3C317 1478.3 322.9 1479.8 328.2 1482.8C333.5 1485.8 337.6 1490.1 340.7 1495.8C343.8 1501.3 345.3 1508.2 345.3 1516.3ZM329.4 1516.3C329.4 1511.1 328.6 1506.6 327 1503C325.5 1499.4 323.3 1496.7 320.4 1494.8C317.6 1492.9 314.3 1492 310.5 1492C306.7 1492 303.4 1492.9 300.6 1494.8C297.8 1496.7 295.6 1499.4 294 1503C292.5 1506.6 291.7 1511 291.7 1516.3C291.7 1521.6 292.5 1526 294 1529.6C295.6 1533.2 297.8 1535.9 300.6 1537.8C303.4 1539.7 306.7 1540.6 310.5 1540.6C314.3 1540.6 317.6 1539.7 320.4 1537.8C323.2 1535.9 325.4 1533.2 327 1529.6C328.6 1525.9 329.4 1521.5 329.4 1516.3ZM356.9 1479.2H376.2L396.6 1529H397.5L417.9 1479.2H437.2V1553.4H422V1505.1H421.4L402.2 1553H392L372.8 1504.9H372.2V1553.4H357V1479.2H356.9ZM513.3 1479.2V1553.4H497.8V1492H467.8V1553.4H452.3V1479.2H513.3ZM541.1 1553.3H524.3L549.9 1479.1H570.1L595.7 1553.3H578.9L560.3 1496.1H559.7L541.1 1553.3ZM540 1524.2H579.7V1536.4H540V1524.2ZM604.6 1553.3V1479.1H620.3V1509.7H652.1V1479.1H667.7V1553.3H652.1V1522.7H620.3V1553.3H604.6ZM680.7 1479.2H696.3V1525.9H696.9L729 1479.2H742.7V1553.4H727V1506.7H726.5L694.3 1553.4H680.7V1479.2ZM812.6 1553.3H797V1492H786.4C783.4 1492 780.9 1492.4 778.9 1493.3C776.9 1494.2 775.4 1495.4 774.4 1497.1C773.4 1498.8 772.9 1500.9 772.9 1503.3C772.9 1505.7 773.4 1507.8 774.4 1509.4C775.4 1511 776.9 1512.3 778.9 1513.1C780.9 1513.9 783.4 1514.3 786.4 1514.3H803.4V1526.9H783.8C778.1 1526.9 773.3 1526 769.2 1524.1C765.2 1522.2 762.1 1519.5 760 1516C757.9 1512.4 756.8 1508.2 756.8 1503.3C756.8 1498.4 757.8 1494.1 759.9 1490.5C762 1486.8 765 1484 769 1482.1C773 1480.1 777.8 1479.1 783.4 1479.1H812.6V1553.3ZM772.6 1519.6H789.5L771.5 1553.4H754.2L772.6 1519.6Z" fill="black"/>
</svg>
