<svg width="1023" height="1580" viewBox="0 0 1023 1580" fill="none" xmlns="http://www.w3.org/2000/svg">
<g clip-path="url(#clip0_84_2)">
<path opacity="0.979" fill-rule="evenodd" clip-rule="evenodd" d="M272.32 -1.06339C524.682 -0.267774 777.381 -0.267774 1030.42 -1.06339C1030.78 429.263 1030.42 859.586 1029.34 1289.91C689.569 1292.15 349.644 1292.9 9.57068 1292.15C9.57068 861.828 9.57068 431.504 9.57068 1.17789C97.5202 1.92187 185.103 1.17479 272.32 -1.06339ZM31.1075 23.5907C67.7272 23.2173 104.34 23.5909 140.945 24.7113C115.553 62.9927 90.4264 101.468 65.5665 140.137C53.3243 129.265 42.1968 117.312 32.1844 104.277C31.1077 77.3916 30.7489 50.4964 31.1075 23.5907ZM287.396 23.5907C299.405 26.0619 311.25 29.0502 322.932 32.5558C336.911 105.678 350.191 178.893 362.775 252.201C293.894 255.751 228.566 241.932 166.79 210.737C207.299 148.43 247.501 86.0484 287.396 23.5907ZM444.615 23.5907C471.187 23.2175 497.748 23.5909 524.301 24.7113C566.309 52.9182 607.946 81.6809 649.215 111.001C603.716 163.109 549.157 201.957 485.535 227.547C481.725 210.555 485.535 227.265 481.725 210.555C470.127 148.599 455.273 85.653 444.615 23.5907ZM892.581 23.5907C933.501 23.5907 974.421 23.5907 1015.34 23.5907C1015.44 184.022 1015.44 344.647 1015.34 505.465C978.147 498.867 941.177 491.397 904.426 483.053C896.482 437.115 888.944 391.169 881.813 345.214C857.599 343.376 833.549 343.751 809.664 346.335C802.592 392.463 795.054 438.409 787.051 484.173C754.416 489.212 722.111 495.936 690.135 504.345C682.692 506.862 676.588 504.995 671.829 498.742C651.166 462.986 630.706 427.126 610.449 391.16C605.571 388.59 600.546 388.215 595.373 390.04C578.143 398.258 560.914 406.475 543.684 414.694C541.371 416.35 539.935 418.591 539.377 421.418C551.838 465.358 561.53 509.809 568.452 554.774C535.35 573.11 504.481 594.774 475.843 619.771C443.76 593.18 411.095 567.405 377.851 542.447C372.107 537.964 366.365 537.964 360.621 542.447C346.553 556.338 333.272 570.906 320.778 586.152C319.342 590.634 319.342 595.117 320.778 599.599C345.694 633.736 369.742 668.476 392.926 703.819C371.857 734.578 352.114 766.33 333.7 799.073C326.251 801.139 318.713 800.765 311.086 797.952C278.691 790.085 246.385 781.867 214.171 773.298C208.573 771.575 203.189 771.949 198.018 774.419C191.309 794.362 183.412 813.785 174.328 832.692C172.892 835.68 172.892 838.67 174.328 841.657C211.776 867.575 249.465 892.976 287.396 917.861C276.696 953.732 269.159 990.341 264.782 1027.68C220.907 1036.98 176.756 1045.19 132.331 1052.34C131.638 1079.04 132.356 1105.56 134.484 1131.9C178.289 1139 222.081 1146.1 265.859 1153.19C269.727 1191.84 276.188 1229.94 285.242 1267.5C200.242 1267.22 115.53 1266.47 31.1075 1265.26C30.0384 975.951 31.1153 686.829 34.338 397.884C45.8243 384.436 57.3108 370.989 68.797 357.541C100.493 376.083 133.875 390.652 168.943 401.246C170.02 402.367 171.097 403.487 172.174 404.608C171.708 440.081 170.632 475.569 168.943 511.069C167.557 540.212 167.301 531.614 168.019 542.447C173.336 545.529 166.955 543.51 200.984 554.036C217.999 557.015 208.428 555.1 233.554 559.256C236.293 559.099 238.805 558.353 241.092 557.015C255.356 512.1 271.508 468.021 289.55 424.779C306.656 427.119 323.886 428.614 341.238 429.262C361.071 428.659 380.814 427.913 400.464 427.021C414.539 470.706 429.255 514.036 444.615 557.015C447.128 557.761 449.639 558.51 452.153 559.256C472.641 555.327 493.101 551.217 513.533 546.929C514.775 499.338 514.775 451.151 513.533 402.367C549.013 390.806 583.472 376.612 616.91 359.782C645.104 393.247 673.819 426.492 703.057 459.519C707.535 461.33 711.842 460.956 715.979 458.399C733.036 446.722 749.906 434.769 766.591 422.538C768.027 419.551 768.027 416.561 766.591 413.573C748.584 373.044 730.997 332.327 713.825 291.423C742.209 265.622 768.411 237.606 792.435 207.375C832.34 228.139 872.543 248.31 913.041 267.89C928.186 249.088 941.825 228.916 953.961 207.375C955.398 205.134 955.398 202.893 953.961 200.652C922.259 169.149 890.673 137.772 859.199 106.518C870.463 79.2691 881.591 51.627 892.581 23.5907ZM903.35 664.596C940.873 669.361 977.486 679.821 1013.19 695.974C1016.06 739.305 1016.06 782.637 1013.19 825.968C989.062 849.901 965.371 874.555 942.116 899.93C940.679 900.677 939.245 901.425 937.809 902.172C927.176 897.745 916.407 894.011 905.503 890.965C905.402 814.289 904.683 738.834 903.35 664.596ZM771.975 664.596C782.562 662.51 771.975 664.596 782.562 662.51C782.562 681.651 782.084 872.226 780.59 890.965C769.801 895.397 760.338 898.581 748.284 901.051C698.691 847.946 648.44 795.651 597.526 744.162C650.109 704.381 708.258 677.86 771.975 664.596ZM511.379 834.933C562.333 886.839 605.855 932.029 656.124 984.717C659.167 987.908 656.124 984.717 665.694 994.288C661.419 1003.95 654.272 1019.78 649.215 1028.8C578.148 1029.92 507.076 1030.3 436 1029.92C443.715 971.03 462.021 917.24 490.919 868.553C497.785 857.221 504.606 846.014 511.379 834.933ZM836.585 1003.03C903.238 1008.51 933.749 1045.86 928.117 1115.09C906.477 1171.93 867.71 1192.1 811.818 1175.61C768.021 1149.38 751.868 1110.9 763.36 1060.18C770.11 1050.15 783.82 1029.92 783.82 1029.92C799.467 1016.36 817.056 1007.4 836.585 1003.03ZM436 1155.44C508.487 1157.44 580.995 1158.18 653.522 1157.68C656.24 1168.4 659.828 1178.86 664.291 1189.06C642.495 1215.1 619.524 1240.13 595.373 1264.14C573.321 1266.7 551.067 1267.82 528.609 1267.5C507.27 1267.49 486.093 1266.74 465.075 1265.26C450.335 1230.05 440.643 1193.44 436 1155.44Z" fill="#39A6FF"/>
</g>
<rect x="3.5" y="3.5" width="1016" height="1288.23" stroke="#39A6FF" stroke-width="7"/>
<path d="M141.789 1356.17H157.437V1402.83H158.053L190.109 1356.17H203.837V1430.35H188.153V1383.67H187.609L155.372 1430.35H141.789V1356.17ZM216.795 1430.35V1356.17H232.479V1386.78H264.318V1356.17H279.965V1430.35H264.318V1399.71H232.479V1430.35H216.795ZM349.402 1356.17V1430.35H334.189V1356.17H349.402ZM289.383 1430.35L312.637 1391.24L290.361 1356.17H309.667L326.329 1386.71H357.661L373.888 1356.17H393.122L371.389 1391.13L394.208 1430.35H375.482L359.798 1401.2H324.047L307.965 1430.35H289.383ZM403.562 1430.35V1356.17H453.548V1369.1H419.246V1386.78H450.977V1399.71H419.246V1417.42H453.693V1430.35H403.562ZM466.018 1430.35V1356.17H481.701V1386.78H513.54V1356.17H529.188V1430.35H513.54V1399.71H481.701V1430.35H466.018ZM542.119 1430.35V1356.17H592.105V1369.1H557.803V1386.78H589.533V1399.71H557.803V1417.42H592.25V1430.35H542.119ZM604.574 1430.35V1356.17H633.841C639.468 1356.17 644.261 1357.25 648.221 1359.4C652.181 1361.52 655.2 1364.48 657.277 1368.27C659.377 1372.04 660.428 1376.38 660.428 1381.31C660.428 1386.24 659.365 1390.58 657.24 1394.35C655.115 1398.12 652.037 1401.05 648.004 1403.15C643.995 1405.25 639.142 1406.3 633.443 1406.3H614.789V1393.73H630.907C633.926 1393.73 636.413 1393.22 638.369 1392.18C640.349 1391.11 641.822 1389.65 642.788 1387.79C643.778 1385.91 644.273 1383.75 644.273 1381.31C644.273 1378.85 643.778 1376.7 642.788 1374.86C641.822 1373 640.349 1371.57 638.369 1370.55C636.389 1369.51 633.877 1369 630.835 1369H620.258V1430.35H604.574ZM670.615 1430.35V1356.17H686.299V1386.78H718.138V1356.17H733.786V1430.35H718.138V1399.71H686.299V1430.35H670.615ZM759.503 1430.35H742.696L768.305 1356.17H788.516L814.089 1430.35H797.282L778.7 1373.12H778.121L759.503 1430.35ZM758.453 1401.2H798.151V1413.44H758.453V1401.2ZM879.958 1430.35H864.31V1369H853.733C850.715 1369 848.204 1369.44 846.199 1370.34C844.219 1371.2 842.734 1372.48 841.744 1374.18C840.754 1375.87 840.259 1377.94 840.259 1380.41C840.259 1382.84 840.754 1384.88 841.744 1386.53C842.734 1388.17 844.219 1389.4 846.199 1390.22C848.179 1391.04 850.667 1391.45 853.661 1391.45H870.685V1404.06H851.125C845.451 1404.06 840.597 1403.12 836.564 1401.23C832.532 1399.35 829.453 1396.64 827.328 1393.12C825.203 1389.57 824.14 1385.33 824.14 1380.41C824.14 1375.5 825.179 1371.24 827.255 1367.62C829.356 1363.97 832.387 1361.16 836.347 1359.18C840.331 1357.18 845.125 1356.17 850.727 1356.17H879.958V1430.35ZM839.933 1396.6H856.848L838.81 1430.35H821.496L839.933 1396.6ZM254.004 1553.35L230.17 1521.73H224.809V1553.35H209.125V1479.17H224.809V1508.8H227.96L252.591 1479.17H272.114L243.173 1513.58L273.455 1553.35H254.004ZM345.327 1516.26C345.327 1524.35 343.794 1531.24 340.727 1536.91C337.684 1542.58 333.531 1546.92 328.267 1549.91C323.027 1552.88 317.135 1554.37 310.591 1554.37C303.998 1554.37 298.082 1552.87 292.842 1549.88C287.602 1546.88 283.461 1542.55 280.418 1536.87C277.375 1531.2 275.854 1524.33 275.854 1516.26C275.854 1508.17 277.375 1501.29 280.418 1495.62C283.461 1489.94 287.602 1485.62 292.842 1482.65C298.082 1479.66 303.998 1478.16 310.591 1478.16C317.135 1478.16 323.027 1479.66 328.267 1482.65C333.531 1485.62 337.684 1489.94 340.727 1495.62C343.794 1501.29 345.327 1508.17 345.327 1516.26ZM329.426 1516.26C329.426 1511.02 328.641 1506.6 327.072 1503.01C325.526 1499.41 323.341 1496.68 320.515 1494.82C317.69 1492.96 314.382 1492.03 310.591 1492.03C306.8 1492.03 303.491 1492.96 300.666 1494.82C297.841 1496.68 295.643 1499.41 294.074 1503.01C292.528 1506.6 291.755 1511.02 291.755 1516.26C291.755 1521.5 292.528 1525.92 294.074 1529.52C295.643 1533.12 297.841 1535.85 300.666 1537.71C303.491 1539.57 306.8 1540.5 310.591 1540.5C314.382 1540.5 317.69 1539.57 320.515 1537.71C323.341 1535.85 325.526 1533.12 327.072 1529.52C328.641 1525.92 329.426 1521.5 329.426 1516.26ZM356.945 1479.17H376.288L396.717 1529.01H397.586L418.015 1479.17H437.357V1553.35H422.144V1505.07H421.528L402.331 1552.99H391.972L372.774 1504.89H372.158V1553.35H356.945V1479.17ZM513.341 1479.17V1553.35H497.838V1491.92H467.847V1553.35H452.344V1479.17H513.341ZM541.06 1553.35H524.253L549.861 1479.17H570.073L595.646 1553.35H578.839L560.257 1496.12H559.678L541.06 1553.35ZM540.009 1524.2H579.708V1536.44H540.009V1524.2ZM604.574 1553.35V1479.17H620.258V1509.78H652.097V1479.17H667.745V1553.35H652.097V1522.71H620.258V1553.35H604.574ZM680.676 1479.17H696.323V1525.83H696.939L728.995 1479.17H742.723V1553.35H727.039V1506.67H726.496L694.259 1553.35H680.676V1479.17ZM812.622 1553.35H796.974V1492H786.397C783.379 1492 780.868 1492.44 778.863 1493.34C776.883 1494.2 775.398 1495.48 774.408 1497.18C773.418 1498.87 772.923 1500.94 772.923 1503.41C772.923 1505.84 773.418 1507.88 774.408 1509.53C775.398 1511.17 776.883 1512.4 778.863 1513.22C780.844 1514.04 783.331 1514.45 786.325 1514.45H803.349V1527.06H783.79C778.115 1527.06 773.261 1526.12 769.228 1524.23C765.196 1522.35 762.117 1519.64 759.992 1516.12C757.867 1512.57 756.804 1508.33 756.804 1503.41C756.804 1498.5 757.843 1494.24 759.92 1490.62C762.02 1486.97 765.051 1484.16 769.011 1482.18C772.995 1480.18 777.789 1479.17 783.391 1479.17H812.622V1553.35ZM772.597 1519.6H789.513L771.474 1553.35H754.16L772.597 1519.6Z" fill="black"/>
<defs>
<clipPath id="clip0_84_2">
<rect width="1023" height="1295.23" fill="white"/>
</clipPath>
</defs>
</svg>
