<svg width="120" height="153" viewBox="0 0 120 153" fill="none" xmlns="http://www.w3.org/2000/svg">
<path opacity="0.979" fill-rule="evenodd" clip-rule="evenodd" d="M31.7322 0.0396423C61.4059 0.133193 91.1192 0.133193 120.872 0.0396423C120.914 50.6391 120.872 101.238 120.746 151.838C80.7939 152.101 40.8242 152.189 0.837097 152.101C0.837097 101.502 0.837097 50.9026 0.837097 0.30318C11.1785 0.39066 21.4769 0.302815 31.7322 0.0396423ZM3.36948 2.93856C7.67537 2.89466 11.9804 2.93859 16.2846 3.07033C13.2989 7.5716 10.3444 12.0957 7.4213 16.6425C5.98181 15.3642 4.67341 13.9587 3.4961 12.4259C3.36951 9.26468 3.32732 6.10224 3.36948 2.93856ZM33.5049 2.93856C34.9169 3.22914 36.3097 3.58051 37.6833 3.99271C39.3271 12.5908 40.8885 21.1996 42.3682 29.8194C34.2689 30.2369 26.5874 28.6119 19.3235 24.944C24.0867 17.6177 28.8139 10.2826 33.5049 2.93856ZM51.9913 2.93856C55.1157 2.89468 58.2389 2.93859 61.3611 3.07033C66.3005 6.387 71.1964 9.76903 76.0489 13.2165C70.699 19.3436 64.2837 23.9116 56.8028 26.9205C56.3548 24.9226 56.8028 26.8874 56.3548 24.9226C54.9911 17.6376 53.2446 10.2361 51.9913 2.93856ZM104.665 2.93856C109.476 2.93856 114.288 2.93856 119.099 2.93856C119.111 21.8027 119.111 40.6895 119.099 59.5993C114.726 58.8234 110.379 57.945 106.058 56.9639C105.123 51.5624 104.237 46.1599 103.399 40.7563C100.552 40.5402 97.7236 40.5842 94.9152 40.888C94.0836 46.3119 93.1972 51.7144 92.2562 57.0956C88.4189 57.6881 84.6203 58.4787 80.8605 59.4675C79.9853 59.7634 79.2676 59.5439 78.7079 58.8086C76.2784 54.6044 73.8726 50.3878 71.4906 46.1588C70.9171 45.8565 70.3263 45.8125 69.718 46.027C67.6921 46.9934 65.6662 47.9596 63.6402 48.926C63.3683 49.1207 63.1994 49.3843 63.1338 49.7166C64.599 54.8833 65.7386 60.11 66.5525 65.3971C62.6602 67.5531 59.0305 70.1004 55.6632 73.0397C51.8907 69.9131 48.0499 66.8824 44.1409 63.9476C43.4655 63.4206 42.7904 63.4206 42.115 63.9476C40.4608 65.581 38.8991 67.294 37.4301 69.0866C37.2612 69.6137 37.2612 70.1408 37.4301 70.6679C40.3598 74.6818 43.1874 78.7666 45.9136 82.9224C43.4361 86.5392 41.1147 90.2727 38.9495 94.1227C38.0735 94.3657 37.1872 94.3217 36.2905 93.991C32.4813 93.066 28.6827 92.0996 24.8948 91.0921C24.2366 90.8894 23.6035 90.9334 22.9955 91.2238C22.2066 93.5688 21.278 95.8526 20.2098 98.0758C20.041 98.4271 20.041 98.7787 20.2098 99.13C24.6132 102.178 29.0448 105.164 33.5049 108.09C32.2468 112.308 31.3604 116.613 30.8459 121.004C25.6869 122.096 20.4954 123.063 15.2717 123.903C15.1903 127.042 15.2747 130.161 15.5249 133.258C20.6756 134.093 25.8249 134.927 30.9725 135.762C31.4273 140.306 32.187 144.786 33.2516 149.202C23.2569 149.169 13.2962 149.081 3.36948 148.939C3.24377 114.921 3.37039 80.9246 3.74934 46.9494C5.09994 45.3682 6.45056 43.787 7.80116 42.2057C11.5281 44.386 15.4533 46.099 19.5767 47.3447C19.7034 47.4765 19.83 47.6083 19.9566 47.74C19.9019 51.9111 19.7753 56.0839 19.5767 60.2581C19.4138 63.6849 19.3836 62.6739 19.468 63.9476C20.0932 64.3101 19.343 64.0727 23.3443 65.3104C25.3449 65.6606 24.2195 65.4354 27.1739 65.9242C27.496 65.9057 27.7913 65.818 28.0602 65.6606C29.7374 60.3793 31.6367 55.1963 33.7581 50.1119C35.7696 50.387 37.7955 50.5628 39.8358 50.639C42.1679 50.5681 44.4893 50.4803 46.7999 50.3754C48.4548 55.5121 50.1852 60.607 51.9913 65.6606C52.2868 65.7484 52.5821 65.8364 52.8776 65.9242C55.2867 65.4622 57.6924 64.9789 60.0949 64.4747C60.241 58.8787 60.241 53.2127 60.0949 47.4765C64.2668 46.1172 68.3186 44.4482 72.2504 42.4693C75.5655 46.4042 78.9419 50.3132 82.3799 54.1967C82.9064 54.4097 83.4129 54.3656 83.8993 54.0649C85.905 52.6919 87.8886 51.2865 89.8504 49.8483C90.0193 49.497 90.0193 49.1455 89.8504 48.7942C87.7331 44.0286 85.6652 39.241 83.6461 34.4314C86.9835 31.3975 90.0644 28.1033 92.8893 24.5487C97.5815 26.9901 102.309 29.3619 107.071 31.6642C108.851 29.4534 110.455 27.0816 111.882 24.5487C112.051 24.2851 112.051 24.0216 111.882 23.7581C108.155 20.0539 104.441 16.3644 100.74 12.6895C102.064 9.48544 103.373 6.23517 104.665 2.93856ZM105.931 78.3105C110.343 78.8707 114.648 80.1007 118.846 82C119.184 87.095 119.184 92.1902 118.846 97.2852C116.009 100.099 113.224 102.998 110.489 105.982C110.32 106.07 110.152 106.158 109.983 106.245C108.733 105.725 107.466 105.286 106.184 104.928C106.172 95.9119 106.088 87.0397 105.931 78.3105ZM90.4835 78.3105C91.7284 78.0651 90.4835 78.3105 91.7284 78.0651C91.7284 80.3158 91.6722 102.724 91.4965 104.928C90.2279 105.449 89.1152 105.823 87.6979 106.114C81.8666 99.8694 75.9578 93.7203 69.9712 87.6661C76.154 82.9885 82.9915 79.8701 90.4835 78.3105ZM59.8417 98.3394C65.833 104.443 70.9505 109.756 76.8613 115.952C77.2192 116.327 76.8613 115.952 77.9867 117.077C77.484 118.212 76.6435 120.075 76.0489 121.135C67.6926 121.267 59.3357 121.311 50.9783 121.267C51.8854 114.342 54.038 108.017 57.4359 102.292C58.2432 100.96 59.0452 99.6423 59.8417 98.3394ZM98.0807 118.105C105.918 118.749 109.506 123.141 108.843 131.282C106.299 137.964 101.74 140.336 95.1684 138.397C90.0186 135.313 88.1193 130.789 89.4706 124.825C90.2642 123.645 91.8763 121.267 91.8763 121.267C93.7161 119.673 95.7843 118.619 98.0807 118.105ZM50.9783 136.025C59.5016 136.261 68.0274 136.348 76.5554 136.289C76.875 137.549 77.2969 138.779 77.8216 139.978C75.2588 143.041 72.5578 145.984 69.718 148.807C67.1251 149.108 64.5084 149.24 61.8676 149.202C59.3585 149.201 56.8684 149.113 54.397 148.939C52.6639 144.799 51.5243 140.494 50.9783 136.025Z" fill="#39A6FF"/>
</svg>
