<svg width="101" height="74" viewBox="0 0 101 74" fill="none" xmlns="http://www.w3.org/2000/svg">
<path d="M33.125 67.4167C34.6668 67.4167 35.9166 66.1668 35.9166 64.625C35.9166 63.0832 34.6668 61.8333 33.125 61.8333C31.5832 61.8333 30.3333 63.0832 30.3333 64.625C30.3333 66.1668 31.5832 67.4167 33.125 67.4167Z" stroke="black" stroke-width="5" stroke-linecap="round" stroke-linejoin="round"/>
<path d="M63.8334 67.4167C65.3751 67.4167 66.625 66.1668 66.625 64.625C66.625 63.0832 65.3751 61.8333 63.8334 61.8333C62.2916 61.8333 61.0417 63.0832 61.0417 64.625C61.0417 66.1668 62.2916 67.4167 63.8334 67.4167Z" stroke="black" stroke-width="5" stroke-linecap="round" stroke-linejoin="round"/>
<path d="M10.7917 8.79167H21.9584L29.44 46.1721C29.6953 47.4574 30.3945 48.6119 31.4153 49.4336C32.436 50.2553 33.7132 50.6918 35.0234 50.6667H62.1584C63.4685 50.6918 64.7457 50.2553 65.7665 49.4336C66.7872 48.6119 67.4864 47.4574 67.7417 46.1721L72.2084 22.75H24.75" stroke="black" stroke-width="5" stroke-linecap="round" stroke-linejoin="round"/>
</svg>
